{
  "accessors": [
    {
      "bufferView": 2,
      "componentType": 5126,
      "count": 19755,
      "max": [
        1.580680012702942,
        2.4989962577819824,
        21.33097267150879
      ],
      "min": [
        -1.580680012702942,
        -2.4989962577819824,
        0.27959778904914856
      ],
      "type": "VEC3"
    },
    {
      "bufferView": 2,
      "byteOffset": 237060,
      "componentType": 5126,
      "count": 19755,
      "max": [
        1.0,
        1.0,
        1.0
      ],
      "min": [
        -1.0,
        -1.0,
        -1.0
      ],
      "type": "VEC3"
    },
    {
      "bufferView": 1,
      "componentType": 5126,
      "count": 19755,
      "max": [
        0.021197428926825523,
        0.16862832009792328
      ],
      "min": [
        0.0002571537042967975,
        0.0071600861847400665
      ],
      "type": "VEC2"
    },
    {
      "bufferView": 0,
      "componentType": 5125,
      "count": 32130,
      "type": "SCALAR"
    },
    {
      "bufferView": 2,
      "byteOffset": 474120,
      "componentType": 5126,
      "count": 31519,
      "max": [
        1.580680012702942,
        2.3456358909606934,
        21.33099937438965
      ],
      "min": [
        -1.4603031873703003,
        -2.4989962577819824,
        0.27959778904914856
      ],
      "type": "VEC3"
    },
    {
      "bufferView": 2,
      "byteOffset": 852348,
      "componentType": 5126,
      "count": 31519,
      "max": [
        1.0,
        1.0,
        1.0
      ],
      "min": [
        -1.0,
        -1.0,
        -1.0
      ],
      "type": "VEC3"
    },
    {
      "bufferView": 1,
      "byteOffset": 158040,
      "componentType": 5126,
      "count": 31519,
      "max": [
        0.11962151527404785,
        0.1698504090309143
      ],
      "min": [
        4.6160501369740814e-05,
        4.6160501369740814e-05
      ],
      "type": "VEC2"
    },
    {
      "bufferView": 0,
      "byteOffset": 128520,
      "componentType": 5125,
      "count": 48183,
      "type": "SCALAR"
    },
    {
      "bufferView": 2,
      "byteOffset": 1230576,
      "componentType": 5126,
      "count": 2491,
      "max": [
        1.7905182838439941,
        2.761509895324707,
        20.116992950439453
      ],
      "min": [
        -1.8049193620681763,
        -2.7616474628448486,
        14.224336624145508
      ],
      "type": "VEC3"
    },
    {
      "bufferView": 2,
      "byteOffset": 1260468,
      "componentType": 5126,
      "count": 2491,
      "max": [
        1.0,
        1.0,
        1.0
      ],
      "min": [
        -1.0,
        -1.0,
        -1.0
      ],
      "type": "VEC3"
    },
    {
      "bufferView": 1,
      "byteOffset": 410192,
      "componentType": 5126,
      "count": 2491,
      "max": [
        0.12871260941028595,
        0.1354617476463318
      ],
      "min": [
        0.014212774112820625,
        4.6160501369740814e-05
      ],
      "type": "VEC2"
    },
    {
      "bufferView": 0,
      "byteOffset": 321252,
      "componentType": 5125,
      "count": 3888,
      "type": "SCALAR"
    },
    {
      "bufferView": 2,
      "byteOffset": 1290360,
      "componentType": 5126,
      "count": 3565,
      "max": [
        1.580680012702942,
        2.4989962577819824,
        25.851749420166016
      ],
      "min": [
        -1.580680012702942,
        -2.4989962577819824,
        16.781572341918945
      ],
      "type": "VEC3"
    },
    {
      "bufferView": 2,
      "byteOffset": 1333140,
      "componentType": 5126,
      "count": 3565,
      "max": [
        1.0,
        1.0,
        1.0
      ],
      "min": [
        -1.0,
        -1.0,
        -1.0
      ],
      "type": "VEC3"
    },
    {
      "bufferView": 1,
      "byteOffset": 430120,
      "componentType": 5126,
      "count": 3565,
      "max": [
        0.12007040530443192,
        0.7831992506980896
      ],
      "min": [
        0.01371019147336483,
        0.028997788205742836
      ],
      "type": "VEC2"
    },
    {
      "bufferView": 0,
      "byteOffset": 336804,
      "componentType": 5125,
      "count": 5157,
      "type": "SCALAR"
    },
    {
      "bufferView": 2,
      "byteOffset": 1375920,
      "componentType": 5126,
      "count": 1014,
      "max": [
        1.2591099739074707,
        2.0383100509643555,
        24.858020782470703
      ],
      "min": [
        -1.2591099739074707,
        -2.0383100509643555,
        17.842599868774414
      ],
      "type": "VEC3"
    },
    {
      "bufferView": 2,
      "byteOffset": 1388088,
      "componentType": 5126,
      "count": 1014,
      "max": [
        0.9972362518310547,
        0.9958566427230835,
        1.0
      ],
      "min": [
        -0.9972362518310547,
        -0.9847224950790405,
        -1.0
      ],
      "type": "VEC3"
    },
    {
      "bufferView": 1,
      "byteOffset": 458640,
      "componentType": 5126,
      "count": 1014,
      "max": [
        0.028338465839624405,
        0.2643791139125824
      ],
      "min": [
        0.013725568540394306,
        0.10735799372196198
      ],
      "type": "VEC2"
    },
    {
      "bufferView": 0,
      "byteOffset": 357432,
      "componentType": 5125,
      "count": 1386,
      "type": "SCALAR"
    },
    {
      "bufferView": 2,
      "byteOffset": 1400256,
      "componentType": 5126,
      "count": 2818,
      "max": [
        1.1522300243377686,
        1.9264400005340576,
        23.42771339416504
      ],
      "min": [
        -1.2108709812164307,
        -1.8221299648284912,
        18.096744537353516
      ],
      "type": "VEC3"
    },
    {
      "bufferView": 2,
      "byteOffset": 1434072,
      "componentType": 5126,
      "count": 2818,
      "max": [
        1.0,
        1.0,
        1.0
      ],
      "min": [
        -1.0,
        -1.0,
        -1.0
      ],
      "type": "VEC3"
    },
    {
      "bufferView": 1,
      "byteOffset": 466752,
      "componentType": 5126,
      "count": 2818,
      "max": [
        0.022799938917160034,
        0.1980140656232834
      ],
      "min": [
        0.014119386672973633,
        0.11042315512895584
      ],
      "type": "VEC2"
    },
    {
      "bufferView": 0,
      "byteOffset": 362976,
      "componentType": 5125,
      "count": 4452,
      "type": "SCALAR"
    },
    {
      "bufferView": 2,
      "byteOffset": 1467888,
      "componentType": 5126,
      "count": 5303,
      "max": [
        1.7514691352844238,
        2.7117080688476563,
        16.56679344177246
      ],
      "min": [
        -1.765870213508606,
        -2.711845636367798,
        13.995367050170898
      ],
      "type": "VEC3"
    },
    {
      "bufferView": 2,
      "byteOffset": 1531524,
      "componentType": 5126,
      "count": 5303,
      "max": [
        1.0,
        1.0,
        1.0
      ],
      "min": [
        -1.0,
        -1.0,
        -1.0
      ],
      "type": "VEC3"
    },
    {
      "bufferView": 1,
      "byteOffset": 489296,
      "componentType": 5126,
      "count": 5303,
      "max": [
        0.8252463340759277,
        0.8985414505004883
      ],
      "min": [
        0.08922935277223587,
        4.6160501369740814e-05
      ],
      "type": "VEC2"
    },
    {
      "bufferView": 0,
      "byteOffset": 380784,
      "componentType": 5125,
      "count": 9576,
      "type": "SCALAR"
    },
    {
      "bufferView": 2,
      "byteOffset": 1595160,
      "componentType": 5126,
      "count": 32,
      "max": [
        0.0,
        1.0582218170166016,
        0.8933982849121094
      ],
      "min": [
        0.0,
        -1.0582218170166016,
        -0.8933982849121094
      ],
      "type": "VEC3"
    },
    {
      "bufferView": 2,
      "byteOffset": 1595544,
      "componentType": 5126,
      "count": 32,
      "max": [
        -1.0,
        0.0,
        0.0
      ],
      "min": [
        -1.0,
        0.0,
        0.0
      ],
      "type": "VEC3"
    },
    {
      "bufferView": 1,
      "byteOffset": 531720,
      "componentType": 5126,
      "count": 32,
      "max": [
        0.9197859764099121,
        0.8474644422531128
      ],
      "min": [
        0.0847271978855133,
        0.007620364427566528
      ],
      "type": "VEC2"
    },
    {
      "bufferView": 0,
      "byteOffset": 419088,
      "componentType": 5125,
      "count": 48,
      "type": "SCALAR"
    },
    {
      "bufferView": 2,
      "byteOffset": 1595928,
      "componentType": 5126,
      "count": 32,
      "max": [
        0.0,
        1.0582218170166016,
        0.8933982849121094
      ],
      "min": [
        0.0,
        -1.0582218170166016,
        -0.8933982849121094
      ],
      "type": "VEC3"
    },
    {
      "bufferView": 2,
      "byteOffset": 1596312,
      "componentType": 5126,
      "count": 32,
      "max": [
        -1.0,
        0.0,
        0.0
      ],
      "min": [
        -1.0,
        0.0,
        0.0
      ],
      "type": "VEC3"
    },
    {
      "bufferView": 1,
      "byteOffset": 531976,
      "componentType": 5126,
      "count": 32,
      "max": [
        0.9197859764099121,
        0.8474644422531128
      ],
      "min": [
        0.0847271978855133,
        0.007620364427566528
      ],
      "type": "VEC2"
    },
    {
      "bufferView": 0,
      "byteOffset": 419280,
      "componentType": 5125,
      "count": 48,
      "type": "SCALAR"
    },
    {
      "bufferView": 2,
      "byteOffset": 1596696,
      "componentType": 5126,
      "count": 47,
      "max": [
        7.253807865481576e-08,
        1.0582218170166016,
        0.8933982253074646
      ],
      "min": [
        -7.253807865481576e-08,
        -1.0582218170166016,
        -0.8933982253074646
      ],
      "type": "VEC3"
    },
    {
      "bufferView": 2,
      "byteOffset": 1597260,
      "componentType": 5126,
      "count": 47,
      "max": [
        1.0,
        6.854715195458994e-08,
        1.712608462163534e-14
      ],
      "min": [
        1.0,
        6.85471235328805e-08,
        -1.688139035570073e-14
      ],
      "type": "VEC3"
    },
    {
      "bufferView": 1,
      "byteOffset": 532232,
      "componentType": 5126,
      "count": 47,
      "max": [
        0.9197859764099121,
        0.8474644422531128
      ],
      "min": [
        0.0847271978855133,
        0.007620364427566528
      ],
      "type": "VEC2"
    },
    {
      "bufferView": 0,
      "byteOffset": 419472,
      "componentType": 5125,
      "count": 48,
      "type": "SCALAR"
    },
    {
      "bufferView": 2,
      "byteOffset": 1597824,
      "componentType": 5126,
      "count": 48,
      "max": [
        7.253801470596954e-08,
        1.0582218170166016,
        0.8933982253074646
      ],
      "min": [
        -7.253801470596954e-08,
        -1.0582218170166016,
        -0.8933982253074646
      ],
      "type": "VEC3"
    },
    {
      "bufferView": 2,
      "byteOffset": 1598400,
      "componentType": 5126,
      "count": 48,
      "max": [
        1.0,
        6.854709511117107e-08,
        1.265793500289207e-14
      ],
      "min": [
        1.0,
        6.854705958403429e-08,
        -1.712608462163534e-14
      ],
      "type": "VEC3"
    },
    {
      "bufferView": 1,
      "byteOffset": 532608,
      "componentType": 5126,
      "count": 48,
      "max": [
        0.9197859764099121,
        0.8474644422531128
      ],
      "min": [
        0.0847271978855133,
        0.007620364427566528
      ],
      "type": "VEC2"
    },
    {
      "bufferView": 0,
      "byteOffset": 419664,
      "componentType": 5125,
      "count": 48,
      "type": "SCALAR"
    }
  ],
  "asset": {
    "extras": {
      "author": "Julian Toquica (https://sketchfab.com/juliantoquicagonzalez)",
      "license": "CC-BY-4.0 (http://creativecommons.org/licenses/by/4.0/)",
      "source": "https://sketchfab.com/3d-models/big-ben-b5f82ba2e3614be2a69755a2a613579a",
      "title": "Big Ben"
    },
    "generator": "Sketchfab-12.68.0",
    "version": "2.0"
  },
  "bufferViews": [
    {
      "buffer": 0,
      "byteLength": 419856,
      "name": "floatBufferViews",
      "target": 34963
    },
    {
      "buffer": 0,
      "byteLength": 532992,
      "byteOffset": 419856,
      "byteStride": 8,
      "name": "floatBufferViews",
      "target": 34962
    },
    {
      "buffer": 0,
      "byteLength": 1598976,
      "byteOffset": 952848,
      "byteStride": 12,
      "name": "floatBufferViews",
      "target": 34962
    }
  ],
  "buffers": [
    {
      "byteLength": 2551824,
      "uri": "scene.bin"
    }
  ],
  "images": [
    {
      "uri": "textures/PRINCIPAL.001_baseColor.png"
    },
    {
      "uri": "textures/PRINCIPAL_baseColor.png"
    },
    {
      "uri": "textures/Material.014_baseColor.png"
    },
    {
      "uri": "textures/Material.016_baseColor.png"
    },
    {
      "uri": "textures/Material.015_baseColor.png"
    },
    {
      "uri": "textures/Material.013_baseColor.png"
    },
    {
      "uri": "textures/Material.007_baseColor.png"
    }
  ],
  "materials": [
    {
      "doubleSided": true,
      "name": "PRINCIPAL.001",
      "pbrMetallicRoughness": {
        "baseColorTexture": {
          "index": 0
        },
        "metallicFactor": 0.0,
        "roughnessFactor": 0.7883398951148328
      }
    },
    {
      "doubleSided": true,
      "name": "PRINCIPAL",
      "pbrMetallicRoughness": {
        "baseColorTexture": {
          "index": 1
        },
        "metallicFactor": 0.6948497893219999,
        "roughnessFactor": 0.14706570843137612
      }
    },
    {
      "doubleSided": true,
      "name": "Material.012",
      "pbrMetallicRoughness": {
        "baseColorFactor": [
          0.14702726649759498,
          0.11953842798834559,
          0.08650046203654974,
          1.0
        ],
        "metallicFactor": 0.0,
        "roughnessFactor": 0.8211145618000169
      }
    },
    {
      "doubleSided": true,
      "name": "Material.014",
      "pbrMetallicRoughness": {
        "baseColorTexture": {
          "index": 2
        },
        "metallicFactor": 0.0,
        "roughnessFactor": 0.8211145618000169
      }
    },
    {
      "doubleSided": true,
      "name": "Material.016",
      "pbrMetallicRoughness": {
        "baseColorTexture": {
          "index": 3
        },
        "metallicFactor": 0.0,
        "roughnessFactor": 0.8485623785901073
      }
    },
    {
      "doubleSided": true,
      "name": "Material.015",
      "pbrMetallicRoughness": {
        "baseColorTexture": {
          "index": 4
        },
        "metallicFactor": 0.0,
        "roughnessFactor": 0.8211145618000169
      }
    },
    {
      "doubleSided": true,
      "name": "Material.013",
      "pbrMetallicRoughness": {
        "baseColorTexture": {
          "index": 5
        },
        "metallicFactor": 0.0,
        "roughnessFactor": 0.7470177871865296
      }
    },
    {
      "doubleSided": true,
      "name": "Material.007",
      "pbrMetallicRoughness": {
        "baseColorTexture": {
          "index": 6
        },
        "metallicFactor": 0.0,
        "roughnessFactor": 0.8211145618000169
      }
    }
  ],
  "meshes": [
    {
      "name": "Cube.001_PRINCIPAL.001_0",
      "primitives": [
        {
          "attributes": {
            "NORMAL": 1,
            "POSITION": 0,
            "TEXCOORD_0": 2
          },
          "indices": 3,
          "material": 0,
          "mode": 4
        }
      ]
    },
    {
      "name": "Cube.001_PRINCIPAL_0",
      "primitives": [
        {
          "attributes": {
            "NORMAL": 5,
            "POSITION": 4,
            "TEXCOORD_0": 6
          },
          "indices": 7,
          "material": 1,
          "mode": 4
        }
      ]
    },
    {
      "name": "Cube.001_Material.012_0",
      "primitives": [
        {
          "attributes": {
            "NORMAL": 9,
            "POSITION": 8,
            "TEXCOORD_0": 10
          },
          "indices": 11,
          "material": 2,
          "mode": 4
        }
      ]
    },
    {
      "name": "Cube.001_Material.014_0",
      "primitives": [
        {
          "attributes": {
            "NORMAL": 13,
            "POSITION": 12,
            "TEXCOORD_0": 14
          },
          "indices": 15,
          "material": 3,
          "mode": 4
        }
      ]
    },
    {
      "name": "Cube.001_Material.016_0",
      "primitives": [
        {
          "attributes": {
            "NORMAL": 17,
            "POSITION": 16,
            "TEXCOORD_0": 18
          },
          "indices": 19,
          "material": 4,
          "mode": 4
        }
      ]
    },
    {
      "name": "Cube.001_Material.015_0",
      "primitives": [
        {
          "attributes": {
            "NORMAL": 21,
            "POSITION": 20,
            "TEXCOORD_0": 22
          },
          "indices": 23,
          "material": 5,
          "mode": 4
        }
      ]
    },
    {
      "name": "Cube.001_Material.013_0",
      "primitives": [
        {
          "attributes": {
            "NORMAL": 25,
            "POSITION": 24,
            "TEXCOORD_0": 26
          },
          "indices": 27,
          "material": 6,
          "mode": 4
        }
      ]
    },
    {
      "name": "Cube.003_Material.007_0",
      "primitives": [
        {
          "attributes": {
            "NORMAL": 29,
            "POSITION": 28,
            "TEXCOORD_0": 30
          },
          "indices": 31,
          "material": 7,
          "mode": 4
        }
      ]
    },
    {
      "name": "Cube.004_Material.007_0",
      "primitives": [
        {
          "attributes": {
            "NORMAL": 33,
            "POSITION": 32,
            "TEXCOORD_0": 34
          },
          "indices": 35,
          "material": 7,
          "mode": 4
        }
      ]
    },
    {
      "name": "Cube.005_Material.007_0",
      "primitives": [
        {
          "attributes": {
            "NORMAL": 37,
            "POSITION": 36,
            "TEXCOORD_0": 38
          },
          "indices": 39,
          "material": 7,
          "mode": 4
        }
      ]
    },
    {
      "name": "Cube.006_Material.007_0",
      "primitives": [
        {
          "attributes": {
            "NORMAL": 41,
            "POSITION": 40,
            "TEXCOORD_0": 42
          },
          "indices": 43,
          "material": 7,
          "mode": 4
        }
      ]
    }
  ],
  "nodes": [
    {
      "children": [
        1
      ],
      "matrix": [
        0.0008008561389469884,
        5.484602010387928e-06,
        1.2178262865676199e-21,
        0.0,
        0.0,
        1.7782995057424654e-19,
        -0.0008008748991414905,
        0.0,
        -5.484602010387928e-06,
        0.0008008561389469884,
        1.7782578497427002e-19,
        0.0,
        9.304856300354004,
        0.8574009537696837,
        0.4523859918117525,
        1.0
      ],
      "name": "Sketchfab_model"
    },
    {
      "children": [
        2
      ],
      "matrix": [
        1.0,
        0.0,
        0.0,
        0.0,
        0.0,
        0.0,
        1.0,
        0.0,
        0.0,
        -1.0,
        0.0,
        0.0,
        0.0,
        0.0,
        0.0,
        1.0
      ],
      "name": "f9293e0e5bf848258282a4c4a0393738.fbx"
    },
    {
      "children": [
        3,
        11,
        13,
        15,
        17
      ],
      "name": "RootNode"
    },
    {
      "children": [
        4,
        5,
        6,
        7,
        8,
        9,
        10
      ],
      "matrix": [
        77.2589875868446,
        -3.967841319583119e-06,
        63.49055333618334,
        0.0,
        49.78218574252578,
        -5.984055111215995e-06,
        -60.577850849126335,
        0.0,
        7.911026778106844e-06,
        99.99999999999963,
        -3.3770974683378086e-06,
        0.0,
        -120.26496124267578,
        -29.08954620361328,
        -417.7136535644531,
        1.0
      ],
      "name": "Cube.001"
    },
    {
      "mesh": 0,
      "name": "Cube.001_PRINCIPAL.001_0"
    },
    {
      "mesh": 1,
      "name": "Cube.001_PRINCIPAL_0"
    },
    {
      "mesh": 2,
      "name": "Cube.001_Material.012_0"
    },
    {
      "mesh": 3,
      "name": "Cube.001_Material.014_0"
    },
    {
      "mesh": 4,
      "name": "Cube.001_Material.016_0"
    },
    {
      "mesh": 5,
      "name": "Cube.001_Material.015_0"
    },
    {
      "mesh": 6,
      "name": "Cube.001_Material.013_0"
    },
    {
      "children": [
        12
      ],
      "matrix": [
        77.2589875868446,
        -3.967841319583119e-06,
        63.49055333618334,
        0.0,
        49.78218574252578,
        -5.984055111215995e-06,
        -60.577850849126335,
        0.0,
        7.911026778106844e-06,
        99.99999999999963,
        -3.3770974683378086e-06,
        0.0,
        -241.79945373535156,
        1481.534423828125,
        -515.660888671875,
        1.0
      ],
      "name": "Cube.003"
    },
    {
      "mesh": 7,
      "name": "Cube.003_Material.007_0"
    },
    {
      "children": [
        14
      ],
      "matrix": [
        -77.25899270157066,
        -5.551114699609309e-15,
        -63.490523079116336,
        0.0,
        -49.78216477053252,
        1.5266758164954794e-05,
        60.57785820857487,
        0.0,
        1.2362062207227353e-05,
        99.99999999999811,
        -1.5042882450799766e-05,
        0.0,
        -5.431079864501953,
        1481.6951904296875,
        -321.41607666015625,
        1.0
      ],
      "name": "Cube.004"
    },
    {
      "mesh": 8,
      "name": "Cube.004_Material.007_0"
    },
    {
      "children": [
        16
      ],
      "matrix": [
        -63.49047358440571,
        -3.8106255650927068e-06,
        77.25904325079276,
        0.0,
        60.57790501068744,
        9.555517864266361e-06,
        49.78213185212153,
        0.0,
        -1.1834781082908918e-05,
        99.99999999999918,
        -4.793397434532665e-06,
        0.0,
        -242.74020385742188,
        1480.2744140625,
        -270.4131164550781,
        1.0
      ],
      "name": "Cube.005"
    },
    {
      "mesh": 9,
      "name": "Cube.005_Material.007_0"
    },
    {
      "children": [
        18
      ],
      "matrix": [
        63.490434356276104,
        0.0,
        -77.2590656128622,
        0.0,
        -60.577915377450985,
        -2.2121473975899098e-05,
        -49.782095204006644,
        0.0,
        -2.1797099458709113e-05,
        99.99999999999602,
        -1.7912555660970497e-05,
        0.0,
        -1.3637065887451172,
        1480.531494140625,
        -564.1340942382813,
        1.0
      ],
      "name": "Cube.006"
    },
    {
      "mesh": 10,
      "name": "Cube.006_Material.007_0"
    }
  ],
  "samplers": [
    {
      "magFilter": 9729,
      "minFilter": 9987,
      "wrapS": 10497,
      "wrapT": 10497
    }
  ],
  "scene": 0,
  "scenes": [
    {
      "name": "Sketchfab_Scene",
      "nodes": [
        0
      ]
    }
  ],
  "textures": [
    {
      "sampler": 0,
      "source": 0
    },
    {
      "sampler": 0,
      "source": 1
    },
    {
      "sampler": 0,
      "source": 2
    },
    {
      "sampler": 0,
      "source": 3
    },
    {
      "sampler": 0,
      "source": 4
    },
    {
      "sampler": 0,
      "source": 5
    },
    {
      "sampler": 0,
      "source": 6
    }
  ]
}
